# xmcd
#
# Track frame offsets: 
#        150
#        12700
#        23696
#        35938
#        47479
#        56791
#        69995
#        80639
#        91756
#        102222
#        114477
#        125285
#        139743
#        151507
#        164755
#        176894
#        187519
#        201426
#        216105
#        231120
#        242737
#        256371
#        270405
#        284474
#        295930
#        309647
#        323119
#        336137
#        347082
#
# Disc length: 4747 seconds
#
# Revision: 1
# Processed by: cddbd v1.5.2PL0 Copyright (c) Steve Scherf et al.
# Submitted via: ExactAudioCopy v1.1
#
DISCID=a812891d
DTITLE=Various Artist - Boogie Woogie Santa Claus:  An R&B Christmas
DYEAR=2017
DGENRE=R&B
TTITLE0=Chuck Berry - Run Rudolph Run (mono)
TTITLE1=The Moonglows with Red Holloway's Orchestra - Hey Santa Claus 
TTITLE1=(mono)
TTITLE2=Jimmy Liggins and His Drops of Joy - I Want My Baby For Christma
TTITLE2=s (mono)
TTITLE3=Oscar McLollie and His Honey Jumpers - Dig That Crazy Santa Clau
TTITLE3=s (mono)
TTITLE4=Jimmy Butler with Blues Express Orchestra - Trim Your Tree (mo
TTITLE4=no)
TTITLE5=Cecil Gant - Hello Santa Claus (mono)
TTITLE6=Mabel Scott - Boogie Woogie Santa Claus (mono)
TTITLE7=Lowell Fulson - Lonesome Christmas (Part 1) (mono)
TTITLE8=The Cadillacs - Rudolph, The Red-Nosed Reindeer (mono)
TTITLE9=Titus Turner - Christmas Morning (mono)
TTITLE10=The Penguins - Jingle Jangle (mono)
TTITLE11=Charles Brown - Christmas Finds Me Oh So Sad (mono)
TTITLE12=Jesse Thomas with Lloyd Glenn Combo - Christmas Celebration (
TTITLE12=mono)
TTITLE13=Amos Milburn and His Aladdin Chicken-Shackers - Let's Make Chri
TTITLE13=stmas Merry, Baby (mono)
TTITLE14=The Drifters - White Christmas (mono)
TTITLE15=Jimmy McCracklin - Christmas Time (Part 1) (mono)
TTITLE16=Huey 'Piano' Smith and The Clowns - Silent Night (mono)
TTITLE17=Chuck Berry - Merry Christmas Baby (mono)
TTITLE18=The Orioles - (It's Gonna Be A) Lonely Christmas (mono)
TTITLE19=Big Bud - Rock Around the Christmas Tree (mono)
TTITLE20=Jimmy Witherspoon - How I Hate to See Xmas Come Around (mono)
TTITLE21=Roy Milton and His Solid Senders - Christmas Time Blues (mono)
TTITLE22=Solomon Burke - Christmas Presents (mono)
TTITLE23=Little Willie John with Three Lads and A Lass - Mommy, What Hap
TTITLE23=pened To Our Christmas Tree (mono)
TTITLE24=Alex Harvey and His Soul Band - The Little Boy That Santa Claus
TTITLE24=Forgot (mono)
TTITLE25=Little Willie Littlefield - Merry Xmas (mono)
TTITLE26=The Five Keys - It's Christmas Time (mono)
TTITLE27=Johnny Moore's Blazers with Frankie Ervin - Christmas Eve Bab
TTITLE27=y (mono)
TTITLE28=The Harmony Grits - Santa Claus Is Coming To Town (mono)
EXTD=
EXTT0=
EXTT1=
EXTT2=
EXTT3=
EXTT4=
EXTT5=
EXTT6=
EXTT7=
EXTT8=
EXTT9=
EXTT10=
EXTT11=
EXTT12=
EXTT13=
EXTT14=
EXTT15=
EXTT16=
EXTT17=
EXTT18=
EXTT19=
EXTT20=
EXTT21=
EXTT22=
EXTT23=
EXTT24=
EXTT25=
EXTT26=
EXTT27=
EXTT28=
PLAYORDER=
